<svg id="Capa_1" data-name="Capa 1" xmlns="http://www.w3.org/2000/svg" viewBox="0 0 285 300"><defs><style>.cls-1{fill:#e6e6e6;}.cls-2{fill:#666;}.cls-3{font-size:32px;fill:#8cc63f;}.cls-3,.cls-6{font-family:MyriadPro-Regular, Myriad Pro;}.cls-4{letter-spacing:-0.01em;}.cls-5{fill:#0071bc;}.cls-6{font-size:15px;}.cls-7{letter-spacing:0em;}.cls-8{letter-spacing:-0.03em;}.cls-9{letter-spacing:-0.01em;}.cls-10{letter-spacing:0.03em;}.cls-11{letter-spacing:-0.03em;}.cls-12{fill:#b3b3b3;}</style></defs><rect class="cls-1" x="23.5" y="0.5" width="232" height="215"/><path d="M674,276V490H443V276H674m1-1H442V491H675V275Z" transform="translate(-419 -275)"/><rect class="cls-2" x="39.5" y="11.5" width="202" height="186"/><path d="M660,287V472H459V287H660m1-1H458V473H661V286Z" transform="translate(-419 -275)"/><rect class="cls-1" x="0.5" y="216.5" width="284" height="83"/><path d="M703,492v82H420V492H703m1-1H419v84H704V491Z" transform="translate(-419 -275)"/><text class="cls-3" transform="translate(53.36 57.68)">GE<tspan class="cls-4" x="36.42" y="0">M</tspan><tspan x="61.82" y="0">A</tspan></text><path class="cls-5" d="M584,315.85" transform="translate(-419 -275)"/><polygon class="cls-5" points="140.84 34.96 198.91 35.89 211 49 200.21 57.9 140.84 57.9 155.84 46.43 140.84 34.96"/><text class="cls-6" transform="translate(47.56 88.7)">MKDIR P<tspan class="cls-7" x="52.99" y="0">R</tspan><tspan class="cls-8" x="61.11" y="0">O</tspan><tspan class="cls-9" x="71.02" y="0">Y</tspan><tspan x="79.03" y="0">E</tspan><tspan class="cls-10" x="86.41" y="0">C</tspan><tspan class="cls-11" x="95.53" y="0">T</tspan><tspan x="102.58" y="0">O</tspan></text><path d="M437.86,491" transform="translate(-419 -275)"/><polyline class="cls-12" points="6 223 6 233.34 18.86 233.34 18.86 223"/><polyline class="cls-12" points="29.3 223 29.3 233.34 76 233 76 223"/><polyline class="cls-12" points="81.65 222.58 81.65 232.91 131 232.58 131 222.58"/><polyline class="cls-12" points="138.65 222.58 138.65 232.91 185 232.58 185 222.58"/><polyline class="cls-12" points="193.65 222.58 193.65 232.91 223 232.58 223 222.58"/><path class="cls-12" d="M426,519.69,425,565H605V518.31Z" transform="translate(-419 -275)"/><polyline class="cls-12" points="193.65 244.42 193.65 254.87 223 254.87 223 244.42"/><polyline class="cls-12" points="195.41 277.52 195.41 287.97 224.76 287.97 224.76 277.52"/><polyline class="cls-12" points="203.41 268.52 203.41 278.97 216 278.97 216 268.52"/><path class="cls-12" d="M658.17,515.78,658,561.09h31.09L689,516Z" transform="translate(-419 -275)"/><path class="cls-12" d="M691,505" transform="translate(-419 -275)"/></svg>